<?xml version="1.0" encoding="iso-8859-1"?>
<!-- Generator: Adobe Illustrator 16.0.0, SVG Export Plug-In . SVG Version: 6.00 Build 0)  -->
<!DOCTYPE svg>
<svg version="1.1" id="Capa_1" xmlns="http://www.w3.org/2000/svg"
	xmlns:xlink="http://www.w3.org/1999/xlink" x="0px" y="0px"
	width="11px" height="11px" viewBox="0 0 511.626 511.627" fill="white"
	style="enable-background:new 0 0 511.626 511.627;"
	xml:space="preserve">

<g>
	<g>
		<path d="M63.953,401.992H9.135c-2.666,0-4.853,0.855-6.567,2.567C0.859,406.271,0,408.461,0,411.126v54.82
			c0,2.665,0.855,4.855,2.568,6.563c1.714,1.718,3.905,2.57,6.567,2.57h54.818c2.663,0,4.853-0.853,6.567-2.57
			c1.712-1.708,2.568-3.898,2.568-6.563v-54.82c0-2.665-0.856-4.849-2.568-6.566C68.806,402.848,66.616,401.992,63.953,401.992z"/>
		<path d="M283.225,292.36h-54.818c-2.667,0-4.854,0.855-6.567,2.566c-1.711,1.711-2.57,3.901-2.57,6.563v164.456
			c0,2.665,0.856,4.855,2.57,6.563c1.713,1.718,3.899,2.57,6.567,2.57h54.818c2.665,0,4.855-0.853,6.563-2.57
			c1.711-1.708,2.573-3.898,2.573-6.563V301.49c0-2.662-0.862-4.853-2.573-6.563C288.081,293.216,285.89,292.36,283.225,292.36z"/>
		<path d="M173.589,365.451h-54.818c-2.667,0-4.854,0.855-6.567,2.566c-1.711,1.711-2.568,3.901-2.568,6.563v91.358
			c0,2.669,0.854,4.859,2.568,6.57c1.713,1.711,3.899,2.566,6.567,2.566h54.818c2.663,0,4.853-0.855,6.567-2.566
			c1.709-1.711,2.568-3.901,2.568-6.57v-91.358c0-2.662-0.859-4.853-2.568-6.563C178.442,366.307,176.251,365.451,173.589,365.451z"
			/>
	</g>
</g>
<g>
</g>
<g>
</g>
<g>
</g>
<g>
</g>
<g>
</g>
<g>
</g>
<g>
</g>
<g>
</g>
<g>
</g>
<g>
</g>
<g>
</g>
<g>
</g>
<g>
</g>
<g>
</g>
<g>
</g>
</svg>