<?xml version="1.0" encoding="utf-8"?>
<!-- Svg Vector Icons : http://www.onlinewebfonts.com/icon -->
<!DOCTYPE svg PUBLIC "-//W3C//DTD SVG 1.1//EN" "http://www.w3.org/Graphics/SVG/1.1/DTD/svg11.dtd">
<svg version="1.1" xmlns="http://www.w3.org/2000/svg" xmlns:xlink="http://www.w3.org/1999/xlink" x="0px" y="0px" viewBox="0 0 1000 1000" enable-background="new 0 0 1000 1000" xml:space="preserve" fill="#FFFFFF">
<metadata> Svg Vector Icons : http://www.onlinewebfonts.com/icon </metadata>
<g><g><path d="M500,418.3c40.5,0,75.1,14.4,103.9,43.1c28.8,28.8,43.1,63.4,43.1,103.9c0,40.5-14.4,75.1-43.1,103.9s-63.4,43.1-103.9,43.1s-75.1-14.4-103.9-43.1S353,605.8,353,565.3c0-40.5,14.4-75.1,43.1-103.9C424.9,432.7,459.5,418.3,500,418.3z M859.3,206c36.1,0,66.9,12.8,92.4,38.3c25.5,25.5,38.3,56.3,38.3,92.4V794c0,36.1-12.8,66.9-38.3,92.4c-25.5,25.5-56.3,38.3-92.4,38.3H140.7c-36.1,0-66.9-12.8-92.4-38.3C22.8,860.9,10,830.1,10,794V336.7c0-36.1,12.8-66.9,38.3-92.4c25.5-25.5,56.3-38.3,92.4-38.3H255l26-69.4c6.5-16.7,18.3-31.1,35.5-43.1s34.8-18.1,52.8-18.1h261.3c18,0,35.6,6,52.8,18.1s29,26.5,35.5,43.1l26,69.4H859.3z M500,794c63,0,116.8-22.4,161.5-67.1c44.7-44.7,67.1-98.6,67.1-161.5c0-63-22.4-116.8-67.1-161.5C616.8,359,563,336.7,500,336.7c-63,0-116.8,22.4-161.5,67.1c-44.7,44.7-67.1,98.6-67.1,161.5c0,63,22.4,116.8,67.1,161.5C383.2,771.6,437,794,500,794z"/></g></g>
</svg>